<?xml version="1.0" encoding="utf-8" standalone="no"?>
<!DOCTYPE svg PUBLIC "-//W3C//DTD SVG 1.1//EN"
  "http://www.w3.org/Graphics/SVG/1.1/DTD/svg11.dtd">
<svg xmlns:xlink="http://www.w3.org/1999/xlink" width="460.8pt" height="345.6pt" viewBox="0 0 460.8 345.6" xmlns="http://www.w3.org/2000/svg" version="1.1">
 <metadata>
  <rdf:RDF xmlns:dc="http://purl.org/dc/elements/1.1/" xmlns:cc="http://creativecommons.org/ns#" xmlns:rdf="http://www.w3.org/1999/02/22-rdf-syntax-ns#">
   <cc:Work>
    <dc:type rdf:resource="http://purl.org/dc/dcmitype/StillImage"/>
    <dc:date>2026-06-11T20:40:34.853847</dc:date>
    <dc:format>image/svg+xml</dc:format>
    <dc:creator>
     <cc:Agent>
      <dc:title>Matplotlib v3.7.1, https://matplotlib.org/</dc:title>
     </cc:Agent>
    </dc:creator>
   </cc:Work>
  </rdf:RDF>
 </metadata>
 <defs>
  <style type="text/css">*{stroke-linejoin: round; stroke-linecap: butt}</style>
 </defs>
 <g id="figure_1">
  <g id="patch_1">
   <path d="M 0 345.6 
L 460.8 345.6 
L 460.8 0 
L 0 0 
z
" style="fill: #ffffff"/>
  </g>
  <g id="axes_1">
   <g id="patch_2">
    <path d="M 57.6 307.584 
L 414.72 307.584 
L 414.72 41.472 
L 57.6 41.472 
z
" style="fill: #ffffff"/>
   </g>
   <g id="matplotlib.axis_1">
    <g id="xtick_1">
     <g id="line2d_1">
      <defs>
       <path id="m16b22597b8" d="M 0 0 
L 0 3.5 
" style="stroke: #000000; stroke-width: 0.8"/>
      </defs>
      <g>
       <use xlink:href="#m16b22597b8" x="73.608828" y="307.584" style="stroke: #000000; stroke-width: 0.8"/>
      </g>
     </g>
     <g id="text_1">
      <!-- 0 -->
      <g transform="translate(70.427578 322.182437) scale(0.1 -0.1)">
       <defs>
        <path id="DejaVuSans-30" d="M 2034 4250 
Q 1547 4250 1301 3770 
Q 1056 3291 1056 2328 
Q 1056 1369 1301 889 
Q 1547 409 2034 409 
Q 2525 409 2770 889 
Q 3016 1369 3016 2328 
Q 3016 3291 2770 3770 
Q 2525 4250 2034 4250 
z
M 2034 4750 
Q 2819 4750 3233 4129 
Q 3647 3509 3647 2328 
Q 3647 1150 3233 529 
Q 2819 -91 2034 -91 
Q 1250 -91 836 529 
Q 422 1150 422 2328 
Q 422 3509 836 4129 
Q 1250 4750 2034 4750 
z
" transform="scale(0.015625)"/>
       </defs>
       <use xlink:href="#DejaVuSans-30"/>
      </g>
     </g>
    </g>
    <g id="xtick_2">
     <g id="line2d_2">
      <g>
       <use xlink:href="#m16b22597b8" x="129.583749" y="307.584" style="stroke: #000000; stroke-width: 0.8"/>
      </g>
     </g>
     <g id="text_2">
      <!-- 5 -->
      <g transform="translate(126.402499 322.182437) scale(0.1 -0.1)">
       <defs>
        <path id="DejaVuSans-35" d="M 691 4666 
L 3169 4666 
L 3169 4134 
L 1269 4134 
L 1269 2991 
Q 1406 3038 1543 3061 
Q 1681 3084 1819 3084 
Q 2600 3084 3056 2656 
Q 3513 2228 3513 1497 
Q 3513 744 3044 326 
Q 2575 -91 1722 -91 
Q 1428 -91 1123 -41 
Q 819 9 494 109 
L 494 744 
Q 775 591 1075 516 
Q 1375 441 1709 441 
Q 2250 441 2565 725 
Q 2881 1009 2881 1497 
Q 2881 1984 2565 2268 
Q 2250 2553 1709 2553 
Q 1456 2553 1204 2497 
Q 953 2441 691 2322 
L 691 4666 
z
" transform="scale(0.015625)"/>
       </defs>
       <use xlink:href="#DejaVuSans-35"/>
      </g>
     </g>
    </g>
    <g id="xtick_3">
     <g id="line2d_3">
      <g>
       <use xlink:href="#m16b22597b8" x="185.558671" y="307.584" style="stroke: #000000; stroke-width: 0.8"/>
      </g>
     </g>
     <g id="text_3">
      <!-- 10 -->
      <g transform="translate(179.196171 322.182437) scale(0.1 -0.1)">
       <defs>
        <path id="DejaVuSans-31" d="M 794 531 
L 1825 531 
L 1825 4091 
L 703 3866 
L 703 4441 
L 1819 4666 
L 2450 4666 
L 2450 531 
L 3481 531 
L 3481 0 
L 794 0 
L 794 531 
z
" transform="scale(0.015625)"/>
       </defs>
       <use xlink:href="#DejaVuSans-31"/>
       <use xlink:href="#DejaVuSans-30" x="63.623047"/>
      </g>
     </g>
    </g>
    <g id="xtick_4">
     <g id="line2d_4">
      <g>
       <use xlink:href="#m16b22597b8" x="241.533592" y="307.584" style="stroke: #000000; stroke-width: 0.8"/>
      </g>
     </g>
     <g id="text_4">
      <!-- 15 -->
      <g transform="translate(235.171092 322.182437) scale(0.1 -0.1)">
       <use xlink:href="#DejaVuSans-31"/>
       <use xlink:href="#DejaVuSans-35" x="63.623047"/>
      </g>
     </g>
    </g>
    <g id="xtick_5">
     <g id="line2d_5">
      <g>
       <use xlink:href="#m16b22597b8" x="297.508514" y="307.584" style="stroke: #000000; stroke-width: 0.8"/>
      </g>
     </g>
     <g id="text_5">
      <!-- 20 -->
      <g transform="translate(291.146014 322.182437) scale(0.1 -0.1)">
       <defs>
        <path id="DejaVuSans-32" d="M 1228 531 
L 3431 531 
L 3431 0 
L 469 0 
L 469 531 
Q 828 903 1448 1529 
Q 2069 2156 2228 2338 
Q 2531 2678 2651 2914 
Q 2772 3150 2772 3378 
Q 2772 3750 2511 3984 
Q 2250 4219 1831 4219 
Q 1534 4219 1204 4116 
Q 875 4013 500 3803 
L 500 4441 
Q 881 4594 1212 4672 
Q 1544 4750 1819 4750 
Q 2544 4750 2975 4387 
Q 3406 4025 3406 3419 
Q 3406 3131 3298 2873 
Q 3191 2616 2906 2266 
Q 2828 2175 2409 1742 
Q 1991 1309 1228 531 
z
" transform="scale(0.015625)"/>
       </defs>
       <use xlink:href="#DejaVuSans-32"/>
       <use xlink:href="#DejaVuSans-30" x="63.623047"/>
      </g>
     </g>
    </g>
    <g id="xtick_6">
     <g id="line2d_6">
      <g>
       <use xlink:href="#m16b22597b8" x="353.483436" y="307.584" style="stroke: #000000; stroke-width: 0.8"/>
      </g>
     </g>
     <g id="text_6">
      <!-- 25 -->
      <g transform="translate(347.120936 322.182437) scale(0.1 -0.1)">
       <use xlink:href="#DejaVuSans-32"/>
       <use xlink:href="#DejaVuSans-35" x="63.623047"/>
      </g>
     </g>
    </g>
    <g id="xtick_7">
     <g id="line2d_7">
      <g>
       <use xlink:href="#m16b22597b8" x="409.458357" y="307.584" style="stroke: #000000; stroke-width: 0.8"/>
      </g>
     </g>
     <g id="text_7">
      <!-- 30 -->
      <g transform="translate(403.095857 322.182437) scale(0.1 -0.1)">
       <defs>
        <path id="DejaVuSans-33" d="M 2597 2516 
Q 3050 2419 3304 2112 
Q 3559 1806 3559 1356 
Q 3559 666 3084 287 
Q 2609 -91 1734 -91 
Q 1441 -91 1130 -33 
Q 819 25 488 141 
L 488 750 
Q 750 597 1062 519 
Q 1375 441 1716 441 
Q 2309 441 2620 675 
Q 2931 909 2931 1356 
Q 2931 1769 2642 2001 
Q 2353 2234 1838 2234 
L 1294 2234 
L 1294 2753 
L 1863 2753 
Q 2328 2753 2575 2939 
Q 2822 3125 2822 3475 
Q 2822 3834 2567 4026 
Q 2313 4219 1838 4219 
Q 1578 4219 1281 4162 
Q 984 4106 628 3988 
L 628 4550 
Q 988 4650 1302 4700 
Q 1616 4750 1894 4750 
Q 2613 4750 3031 4423 
Q 3450 4097 3450 3541 
Q 3450 3153 3228 2886 
Q 3006 2619 2597 2516 
z
" transform="scale(0.015625)"/>
       </defs>
       <use xlink:href="#DejaVuSans-33"/>
       <use xlink:href="#DejaVuSans-30" x="63.623047"/>
      </g>
     </g>
    </g>
    <g id="text_8">
     <!-- Number of configurations / $n_e$ -->
     <g transform="translate(161.96 335.862125) scale(0.1 -0.1)">
      <defs>
       <path id="DejaVuSans-4e" d="M 628 4666 
L 1478 4666 
L 3547 763 
L 3547 4666 
L 4159 4666 
L 4159 0 
L 3309 0 
L 1241 3903 
L 1241 0 
L 628 0 
L 628 4666 
z
" transform="scale(0.015625)"/>
       <path id="DejaVuSans-75" d="M 544 1381 
L 544 3500 
L 1119 3500 
L 1119 1403 
Q 1119 906 1312 657 
Q 1506 409 1894 409 
Q 2359 409 2629 706 
Q 2900 1003 2900 1516 
L 2900 3500 
L 3475 3500 
L 3475 0 
L 2900 0 
L 2900 538 
Q 2691 219 2414 64 
Q 2138 -91 1772 -91 
Q 1169 -91 856 284 
Q 544 659 544 1381 
z
M 1991 3584 
L 1991 3584 
z
" transform="scale(0.015625)"/>
       <path id="DejaVuSans-6d" d="M 3328 2828 
Q 3544 3216 3844 3400 
Q 4144 3584 4550 3584 
Q 5097 3584 5394 3201 
Q 5691 2819 5691 2113 
L 5691 0 
L 5113 0 
L 5113 2094 
Q 5113 2597 4934 2840 
Q 4756 3084 4391 3084 
Q 3944 3084 3684 2787 
Q 3425 2491 3425 1978 
L 3425 0 
L 2847 0 
L 2847 2094 
Q 2847 2600 2669 2842 
Q 2491 3084 2119 3084 
Q 1678 3084 1418 2786 
Q 1159 2488 1159 1978 
L 1159 0 
L 581 0 
L 581 3500 
L 1159 3500 
L 1159 2956 
Q 1356 3278 1631 3431 
Q 1906 3584 2284 3584 
Q 2666 3584 2933 3390 
Q 3200 3197 3328 2828 
z
" transform="scale(0.015625)"/>
       <path id="DejaVuSans-62" d="M 3116 1747 
Q 3116 2381 2855 2742 
Q 2594 3103 2138 3103 
Q 1681 3103 1420 2742 
Q 1159 2381 1159 1747 
Q 1159 1113 1420 752 
Q 1681 391 2138 391 
Q 2594 391 2855 752 
Q 3116 1113 3116 1747 
z
M 1159 2969 
Q 1341 3281 1617 3432 
Q 1894 3584 2278 3584 
Q 2916 3584 3314 3078 
Q 3713 2572 3713 1747 
Q 3713 922 3314 415 
Q 2916 -91 2278 -91 
Q 1894 -91 1617 61 
Q 1341 213 1159 525 
L 1159 0 
L 581 0 
L 581 4863 
L 1159 4863 
L 1159 2969 
z
" transform="scale(0.015625)"/>
       <path id="DejaVuSans-65" d="M 3597 1894 
L 3597 1613 
L 953 1613 
Q 991 1019 1311 708 
Q 1631 397 2203 397 
Q 2534 397 2845 478 
Q 3156 559 3463 722 
L 3463 178 
Q 3153 47 2828 -22 
Q 2503 -91 2169 -91 
Q 1331 -91 842 396 
Q 353 884 353 1716 
Q 353 2575 817 3079 
Q 1281 3584 2069 3584 
Q 2775 3584 3186 3129 
Q 3597 2675 3597 1894 
z
M 3022 2063 
Q 3016 2534 2758 2815 
Q 2500 3097 2075 3097 
Q 1594 3097 1305 2825 
Q 1016 2553 972 2059 
L 3022 2063 
z
" transform="scale(0.015625)"/>
       <path id="DejaVuSans-72" d="M 2631 2963 
Q 2534 3019 2420 3045 
Q 2306 3072 2169 3072 
Q 1681 3072 1420 2755 
Q 1159 2438 1159 1844 
L 1159 0 
L 581 0 
L 581 3500 
L 1159 3500 
L 1159 2956 
Q 1341 3275 1631 3429 
Q 1922 3584 2338 3584 
Q 2397 3584 2469 3576 
Q 2541 3569 2628 3553 
L 2631 2963 
z
" transform="scale(0.015625)"/>
       <path id="DejaVuSans-20" transform="scale(0.015625)"/>
       <path id="DejaVuSans-6f" d="M 1959 3097 
Q 1497 3097 1228 2736 
Q 959 2375 959 1747 
Q 959 1119 1226 758 
Q 1494 397 1959 397 
Q 2419 397 2687 759 
Q 2956 1122 2956 1747 
Q 2956 2369 2687 2733 
Q 2419 3097 1959 3097 
z
M 1959 3584 
Q 2709 3584 3137 3096 
Q 3566 2609 3566 1747 
Q 3566 888 3137 398 
Q 2709 -91 1959 -91 
Q 1206 -91 779 398 
Q 353 888 353 1747 
Q 353 2609 779 3096 
Q 1206 3584 1959 3584 
z
" transform="scale(0.015625)"/>
       <path id="DejaVuSans-66" d="M 2375 4863 
L 2375 4384 
L 1825 4384 
Q 1516 4384 1395 4259 
Q 1275 4134 1275 3809 
L 1275 3500 
L 2222 3500 
L 2222 3053 
L 1275 3053 
L 1275 0 
L 697 0 
L 697 3053 
L 147 3053 
L 147 3500 
L 697 3500 
L 697 3744 
Q 697 4328 969 4595 
Q 1241 4863 1831 4863 
L 2375 4863 
z
" transform="scale(0.015625)"/>
       <path id="DejaVuSans-63" d="M 3122 3366 
L 3122 2828 
Q 2878 2963 2633 3030 
Q 2388 3097 2138 3097 
Q 1578 3097 1268 2742 
Q 959 2388 959 1747 
Q 959 1106 1268 751 
Q 1578 397 2138 397 
Q 2388 397 2633 464 
Q 2878 531 3122 666 
L 3122 134 
Q 2881 22 2623 -34 
Q 2366 -91 2075 -91 
Q 1284 -91 818 406 
Q 353 903 353 1747 
Q 353 2603 823 3093 
Q 1294 3584 2113 3584 
Q 2378 3584 2631 3529 
Q 2884 3475 3122 3366 
z
" transform="scale(0.015625)"/>
       <path id="DejaVuSans-6e" d="M 3513 2113 
L 3513 0 
L 2938 0 
L 2938 2094 
Q 2938 2591 2744 2837 
Q 2550 3084 2163 3084 
Q 1697 3084 1428 2787 
Q 1159 2491 1159 1978 
L 1159 0 
L 581 0 
L 581 3500 
L 1159 3500 
L 1159 2956 
Q 1366 3272 1645 3428 
Q 1925 3584 2291 3584 
Q 2894 3584 3203 3211 
Q 3513 2838 3513 2113 
z
" transform="scale(0.015625)"/>
       <path id="DejaVuSans-69" d="M 603 3500 
L 1178 3500 
L 1178 0 
L 603 0 
L 603 3500 
z
M 603 4863 
L 1178 4863 
L 1178 4134 
L 603 4134 
L 603 4863 
z
" transform="scale(0.015625)"/>
       <path id="DejaVuSans-67" d="M 2906 1791 
Q 2906 2416 2648 2759 
Q 2391 3103 1925 3103 
Q 1463 3103 1205 2759 
Q 947 2416 947 1791 
Q 947 1169 1205 825 
Q 1463 481 1925 481 
Q 2391 481 2648 825 
Q 2906 1169 2906 1791 
z
M 3481 434 
Q 3481 -459 3084 -895 
Q 2688 -1331 1869 -1331 
Q 1566 -1331 1297 -1286 
Q 1028 -1241 775 -1147 
L 775 -588 
Q 1028 -725 1275 -790 
Q 1522 -856 1778 -856 
Q 2344 -856 2625 -561 
Q 2906 -266 2906 331 
L 2906 616 
Q 2728 306 2450 153 
Q 2172 0 1784 0 
Q 1141 0 747 490 
Q 353 981 353 1791 
Q 353 2603 747 3093 
Q 1141 3584 1784 3584 
Q 2172 3584 2450 3431 
Q 2728 3278 2906 2969 
L 2906 3500 
L 3481 3500 
L 3481 434 
z
" transform="scale(0.015625)"/>
       <path id="DejaVuSans-61" d="M 2194 1759 
Q 1497 1759 1228 1600 
Q 959 1441 959 1056 
Q 959 750 1161 570 
Q 1363 391 1709 391 
Q 2188 391 2477 730 
Q 2766 1069 2766 1631 
L 2766 1759 
L 2194 1759 
z
M 3341 1997 
L 3341 0 
L 2766 0 
L 2766 531 
Q 2569 213 2275 61 
Q 1981 -91 1556 -91 
Q 1019 -91 701 211 
Q 384 513 384 1019 
Q 384 1609 779 1909 
Q 1175 2209 1959 2209 
L 2766 2209 
L 2766 2266 
Q 2766 2663 2505 2880 
Q 2244 3097 1772 3097 
Q 1472 3097 1187 3025 
Q 903 2953 641 2809 
L 641 3341 
Q 956 3463 1253 3523 
Q 1550 3584 1831 3584 
Q 2591 3584 2966 3190 
Q 3341 2797 3341 1997 
z
" transform="scale(0.015625)"/>
       <path id="DejaVuSans-74" d="M 1172 4494 
L 1172 3500 
L 2356 3500 
L 2356 3053 
L 1172 3053 
L 1172 1153 
Q 1172 725 1289 603 
Q 1406 481 1766 481 
L 2356 481 
L 2356 0 
L 1766 0 
Q 1100 0 847 248 
Q 594 497 594 1153 
L 594 3053 
L 172 3053 
L 172 3500 
L 594 3500 
L 594 4494 
L 1172 4494 
z
" transform="scale(0.015625)"/>
       <path id="DejaVuSans-73" d="M 2834 3397 
L 2834 2853 
Q 2591 2978 2328 3040 
Q 2066 3103 1784 3103 
Q 1356 3103 1142 2972 
Q 928 2841 928 2578 
Q 928 2378 1081 2264 
Q 1234 2150 1697 2047 
L 1894 2003 
Q 2506 1872 2764 1633 
Q 3022 1394 3022 966 
Q 3022 478 2636 193 
Q 2250 -91 1575 -91 
Q 1294 -91 989 -36 
Q 684 19 347 128 
L 347 722 
Q 666 556 975 473 
Q 1284 391 1588 391 
Q 1994 391 2212 530 
Q 2431 669 2431 922 
Q 2431 1156 2273 1281 
Q 2116 1406 1581 1522 
L 1381 1569 
Q 847 1681 609 1914 
Q 372 2147 372 2553 
Q 372 3047 722 3315 
Q 1072 3584 1716 3584 
Q 2034 3584 2315 3537 
Q 2597 3491 2834 3397 
z
" transform="scale(0.015625)"/>
       <path id="DejaVuSans-2f" d="M 1625 4666 
L 2156 4666 
L 531 -594 
L 0 -594 
L 1625 4666 
z
" transform="scale(0.015625)"/>
       <path id="DejaVuSans-Oblique-6e" d="M 3566 2113 
L 3156 0 
L 2578 0 
L 2988 2091 
Q 3016 2238 3031 2350 
Q 3047 2463 3047 2528 
Q 3047 2791 2881 2937 
Q 2716 3084 2419 3084 
Q 1956 3084 1622 2776 
Q 1288 2469 1184 1941 
L 800 0 
L 225 0 
L 903 3500 
L 1478 3500 
L 1363 2950 
Q 1603 3253 1940 3418 
Q 2278 3584 2650 3584 
Q 3113 3584 3367 3334 
Q 3622 3084 3622 2631 
Q 3622 2519 3608 2391 
Q 3594 2263 3566 2113 
z
" transform="scale(0.015625)"/>
       <path id="DejaVuSans-Oblique-65" d="M 3078 2063 
Q 3088 2113 3092 2166 
Q 3097 2219 3097 2272 
Q 3097 2653 2873 2875 
Q 2650 3097 2266 3097 
Q 1838 3097 1509 2826 
Q 1181 2556 1013 2059 
L 3078 2063 
z
M 3578 1613 
L 903 1613 
Q 884 1494 878 1425 
Q 872 1356 872 1306 
Q 872 872 1139 634 
Q 1406 397 1894 397 
Q 2269 397 2603 481 
Q 2938 566 3225 728 
L 3116 159 
Q 2806 34 2476 -28 
Q 2147 -91 1806 -91 
Q 1078 -91 686 257 
Q 294 606 294 1247 
Q 294 1794 489 2264 
Q 684 2734 1063 3103 
Q 1306 3334 1642 3459 
Q 1978 3584 2356 3584 
Q 2950 3584 3301 3228 
Q 3653 2872 3653 2272 
Q 3653 2128 3634 1964 
Q 3616 1800 3578 1613 
z
" transform="scale(0.015625)"/>
      </defs>
      <use xlink:href="#DejaVuSans-4e" transform="translate(0 0.015625)"/>
      <use xlink:href="#DejaVuSans-75" transform="translate(74.804688 0.015625)"/>
      <use xlink:href="#DejaVuSans-6d" transform="translate(138.183594 0.015625)"/>
      <use xlink:href="#DejaVuSans-62" transform="translate(235.595703 0.015625)"/>
      <use xlink:href="#DejaVuSans-65" transform="translate(299.072266 0.015625)"/>
      <use xlink:href="#DejaVuSans-72" transform="translate(360.595703 0.015625)"/>
      <use xlink:href="#DejaVuSans-20" transform="translate(401.708984 0.015625)"/>
      <use xlink:href="#DejaVuSans-6f" transform="translate(433.496094 0.015625)"/>
      <use xlink:href="#DejaVuSans-66" transform="translate(494.677734 0.015625)"/>
      <use xlink:href="#DejaVuSans-20" transform="translate(529.882812 0.015625)"/>
      <use xlink:href="#DejaVuSans-63" transform="translate(561.669922 0.015625)"/>
      <use xlink:href="#DejaVuSans-6f" transform="translate(616.650391 0.015625)"/>
      <use xlink:href="#DejaVuSans-6e" transform="translate(677.832031 0.015625)"/>
      <use xlink:href="#DejaVuSans-66" transform="translate(741.210938 0.015625)"/>
      <use xlink:href="#DejaVuSans-69" transform="translate(776.416016 0.015625)"/>
      <use xlink:href="#DejaVuSans-67" transform="translate(804.199219 0.015625)"/>
      <use xlink:href="#DejaVuSans-75" transform="translate(867.675781 0.015625)"/>
      <use xlink:href="#DejaVuSans-72" transform="translate(931.054688 0.015625)"/>
      <use xlink:href="#DejaVuSans-61" transform="translate(972.167969 0.015625)"/>
      <use xlink:href="#DejaVuSans-74" transform="translate(1033.447266 0.015625)"/>
      <use xlink:href="#DejaVuSans-69" transform="translate(1072.65625 0.015625)"/>
      <use xlink:href="#DejaVuSans-6f" transform="translate(1100.439453 0.015625)"/>
      <use xlink:href="#DejaVuSans-6e" transform="translate(1161.621094 0.015625)"/>
      <use xlink:href="#DejaVuSans-73" transform="translate(1225 0.015625)"/>
      <use xlink:href="#DejaVuSans-20" transform="translate(1277.099609 0.015625)"/>
      <use xlink:href="#DejaVuSans-2f" transform="translate(1308.886719 0.015625)"/>
      <use xlink:href="#DejaVuSans-20" transform="translate(1342.578125 0.015625)"/>
      <use xlink:href="#DejaVuSans-Oblique-6e" transform="translate(1374.365234 0.015625)"/>
      <use xlink:href="#DejaVuSans-Oblique-65" transform="translate(1437.744141 -16.390625) scale(0.7)"/>
     </g>
    </g>
   </g>
   <g id="matplotlib.axis_2">
    <g id="ytick_1">
     <g id="line2d_8">
      <defs>
       <path id="madd5d4f0c1" d="M 0 0 
L -3.5 0 
" style="stroke: #000000; stroke-width: 0.8"/>
      </defs>
      <g>
       <use xlink:href="#madd5d4f0c1" x="57.6" y="307.584" style="stroke: #000000; stroke-width: 0.8"/>
      </g>
     </g>
     <g id="text_9">
      <!-- −0.2 -->
      <g transform="translate(26.317187 311.383219) scale(0.1 -0.1)">
       <defs>
        <path id="DejaVuSans-2212" d="M 678 2272 
L 4684 2272 
L 4684 1741 
L 678 1741 
L 678 2272 
z
" transform="scale(0.015625)"/>
        <path id="DejaVuSans-2e" d="M 684 794 
L 1344 794 
L 1344 0 
L 684 0 
L 684 794 
z
" transform="scale(0.015625)"/>
       </defs>
       <use xlink:href="#DejaVuSans-2212"/>
       <use xlink:href="#DejaVuSans-30" x="83.789062"/>
       <use xlink:href="#DejaVuSans-2e" x="147.412109"/>
       <use xlink:href="#DejaVuSans-32" x="179.199219"/>
      </g>
     </g>
    </g>
    <g id="ytick_2">
     <g id="line2d_9">
      <g>
       <use xlink:href="#madd5d4f0c1" x="57.6" y="269.568" style="stroke: #000000; stroke-width: 0.8"/>
      </g>
     </g>
     <g id="text_10">
      <!-- 0.0 -->
      <g transform="translate(34.696875 273.367219) scale(0.1 -0.1)">
       <use xlink:href="#DejaVuSans-30"/>
       <use xlink:href="#DejaVuSans-2e" x="63.623047"/>
       <use xlink:href="#DejaVuSans-30" x="95.410156"/>
      </g>
     </g>
    </g>
    <g id="ytick_3">
     <g id="line2d_10">
      <g>
       <use xlink:href="#madd5d4f0c1" x="57.6" y="231.552" style="stroke: #000000; stroke-width: 0.8"/>
      </g>
     </g>
     <g id="text_11">
      <!-- 0.2 -->
      <g transform="translate(34.696875 235.351219) scale(0.1 -0.1)">
       <use xlink:href="#DejaVuSans-30"/>
       <use xlink:href="#DejaVuSans-2e" x="63.623047"/>
       <use xlink:href="#DejaVuSans-32" x="95.410156"/>
      </g>
     </g>
    </g>
    <g id="ytick_4">
     <g id="line2d_11">
      <g>
       <use xlink:href="#madd5d4f0c1" x="57.6" y="193.536" style="stroke: #000000; stroke-width: 0.8"/>
      </g>
     </g>
     <g id="text_12">
      <!-- 0.4 -->
      <g transform="translate(34.696875 197.335219) scale(0.1 -0.1)">
       <defs>
        <path id="DejaVuSans-34" d="M 2419 4116 
L 825 1625 
L 2419 1625 
L 2419 4116 
z
M 2253 4666 
L 3047 4666 
L 3047 1625 
L 3713 1625 
L 3713 1100 
L 3047 1100 
L 3047 0 
L 2419 0 
L 2419 1100 
L 313 1100 
L 313 1709 
L 2253 4666 
z
" transform="scale(0.015625)"/>
       </defs>
       <use xlink:href="#DejaVuSans-30"/>
       <use xlink:href="#DejaVuSans-2e" x="63.623047"/>
       <use xlink:href="#DejaVuSans-34" x="95.410156"/>
      </g>
     </g>
    </g>
    <g id="ytick_5">
     <g id="line2d_12">
      <g>
       <use xlink:href="#madd5d4f0c1" x="57.6" y="155.52" style="stroke: #000000; stroke-width: 0.8"/>
      </g>
     </g>
     <g id="text_13">
      <!-- 0.6 -->
      <g transform="translate(34.696875 159.319219) scale(0.1 -0.1)">
       <defs>
        <path id="DejaVuSans-36" d="M 2113 2584 
Q 1688 2584 1439 2293 
Q 1191 2003 1191 1497 
Q 1191 994 1439 701 
Q 1688 409 2113 409 
Q 2538 409 2786 701 
Q 3034 994 3034 1497 
Q 3034 2003 2786 2293 
Q 2538 2584 2113 2584 
z
M 3366 4563 
L 3366 3988 
Q 3128 4100 2886 4159 
Q 2644 4219 2406 4219 
Q 1781 4219 1451 3797 
Q 1122 3375 1075 2522 
Q 1259 2794 1537 2939 
Q 1816 3084 2150 3084 
Q 2853 3084 3261 2657 
Q 3669 2231 3669 1497 
Q 3669 778 3244 343 
Q 2819 -91 2113 -91 
Q 1303 -91 875 529 
Q 447 1150 447 2328 
Q 447 3434 972 4092 
Q 1497 4750 2381 4750 
Q 2619 4750 2861 4703 
Q 3103 4656 3366 4563 
z
" transform="scale(0.015625)"/>
       </defs>
       <use xlink:href="#DejaVuSans-30"/>
       <use xlink:href="#DejaVuSans-2e" x="63.623047"/>
       <use xlink:href="#DejaVuSans-36" x="95.410156"/>
      </g>
     </g>
    </g>
    <g id="ytick_6">
     <g id="line2d_13">
      <g>
       <use xlink:href="#madd5d4f0c1" x="57.6" y="117.504" style="stroke: #000000; stroke-width: 0.8"/>
      </g>
     </g>
     <g id="text_14">
      <!-- 0.8 -->
      <g transform="translate(34.696875 121.303219) scale(0.1 -0.1)">
       <defs>
        <path id="DejaVuSans-38" d="M 2034 2216 
Q 1584 2216 1326 1975 
Q 1069 1734 1069 1313 
Q 1069 891 1326 650 
Q 1584 409 2034 409 
Q 2484 409 2743 651 
Q 3003 894 3003 1313 
Q 3003 1734 2745 1975 
Q 2488 2216 2034 2216 
z
M 1403 2484 
Q 997 2584 770 2862 
Q 544 3141 544 3541 
Q 544 4100 942 4425 
Q 1341 4750 2034 4750 
Q 2731 4750 3128 4425 
Q 3525 4100 3525 3541 
Q 3525 3141 3298 2862 
Q 3072 2584 2669 2484 
Q 3125 2378 3379 2068 
Q 3634 1759 3634 1313 
Q 3634 634 3220 271 
Q 2806 -91 2034 -91 
Q 1263 -91 848 271 
Q 434 634 434 1313 
Q 434 1759 690 2068 
Q 947 2378 1403 2484 
z
M 1172 3481 
Q 1172 3119 1398 2916 
Q 1625 2713 2034 2713 
Q 2441 2713 2670 2916 
Q 2900 3119 2900 3481 
Q 2900 3844 2670 4047 
Q 2441 4250 2034 4250 
Q 1625 4250 1398 4047 
Q 1172 3844 1172 3481 
z
" transform="scale(0.015625)"/>
       </defs>
       <use xlink:href="#DejaVuSans-30"/>
       <use xlink:href="#DejaVuSans-2e" x="63.623047"/>
       <use xlink:href="#DejaVuSans-38" x="95.410156"/>
      </g>
     </g>
    </g>
    <g id="ytick_7">
     <g id="line2d_14">
      <g>
       <use xlink:href="#madd5d4f0c1" x="57.6" y="79.488" style="stroke: #000000; stroke-width: 0.8"/>
      </g>
     </g>
     <g id="text_15">
      <!-- 1.0 -->
      <g transform="translate(34.696875 83.287219) scale(0.1 -0.1)">
       <use xlink:href="#DejaVuSans-31"/>
       <use xlink:href="#DejaVuSans-2e" x="63.623047"/>
       <use xlink:href="#DejaVuSans-30" x="95.410156"/>
      </g>
     </g>
    </g>
    <g id="ytick_8">
     <g id="line2d_15">
      <g>
       <use xlink:href="#madd5d4f0c1" x="57.6" y="41.472" style="stroke: #000000; stroke-width: 0.8"/>
      </g>
     </g>
     <g id="text_16">
      <!-- 1.2 -->
      <g transform="translate(34.696875 45.271219) scale(0.1 -0.1)">
       <use xlink:href="#DejaVuSans-31"/>
       <use xlink:href="#DejaVuSans-2e" x="63.623047"/>
       <use xlink:href="#DejaVuSans-32" x="95.410156"/>
      </g>
     </g>
    </g>
    <g id="text_17">
     <!-- Recall Fraction -->
     <g transform="translate(20.2375 210.993625) rotate(-90) scale(0.1 -0.1)">
      <defs>
       <path id="DejaVuSans-52" d="M 2841 2188 
Q 3044 2119 3236 1894 
Q 3428 1669 3622 1275 
L 4263 0 
L 3584 0 
L 2988 1197 
Q 2756 1666 2539 1819 
Q 2322 1972 1947 1972 
L 1259 1972 
L 1259 0 
L 628 0 
L 628 4666 
L 2053 4666 
Q 2853 4666 3247 4331 
Q 3641 3997 3641 3322 
Q 3641 2881 3436 2590 
Q 3231 2300 2841 2188 
z
M 1259 4147 
L 1259 2491 
L 2053 2491 
Q 2509 2491 2742 2702 
Q 2975 2913 2975 3322 
Q 2975 3731 2742 3939 
Q 2509 4147 2053 4147 
L 1259 4147 
z
" transform="scale(0.015625)"/>
       <path id="DejaVuSans-6c" d="M 603 4863 
L 1178 4863 
L 1178 0 
L 603 0 
L 603 4863 
z
" transform="scale(0.015625)"/>
       <path id="DejaVuSans-46" d="M 628 4666 
L 3309 4666 
L 3309 4134 
L 1259 4134 
L 1259 2759 
L 3109 2759 
L 3109 2228 
L 1259 2228 
L 1259 0 
L 628 0 
L 628 4666 
z
" transform="scale(0.015625)"/>
      </defs>
      <use xlink:href="#DejaVuSans-52"/>
      <use xlink:href="#DejaVuSans-65" x="64.982422"/>
      <use xlink:href="#DejaVuSans-63" x="126.505859"/>
      <use xlink:href="#DejaVuSans-61" x="181.486328"/>
      <use xlink:href="#DejaVuSans-6c" x="242.765625"/>
      <use xlink:href="#DejaVuSans-6c" x="270.548828"/>
      <use xlink:href="#DejaVuSans-20" x="298.332031"/>
      <use xlink:href="#DejaVuSans-46" x="330.119141"/>
      <use xlink:href="#DejaVuSans-72" x="380.388672"/>
      <use xlink:href="#DejaVuSans-61" x="421.501953"/>
      <use xlink:href="#DejaVuSans-63" x="482.78125"/>
      <use xlink:href="#DejaVuSans-74" x="537.761719"/>
      <use xlink:href="#DejaVuSans-69" x="576.970703"/>
      <use xlink:href="#DejaVuSans-6f" x="604.753906"/>
      <use xlink:href="#DejaVuSans-6e" x="665.935547"/>
     </g>
    </g>
   </g>
   <g id="LineCollection_1">
    <path d="M 73.832727 79.488 
L 73.832727 79.488 
" clip-path="url(#pe524798156)" style="fill: none; stroke: #2878b5; stroke-width: 1.5"/>
    <path d="M 85.027712 87.136229 
L 85.027712 78.175771 
" clip-path="url(#pe524798156)" style="fill: none; stroke: #2878b5; stroke-width: 1.5"/>
    <path d="M 96.222696 79.488 
L 96.222696 79.488 
" clip-path="url(#pe524798156)" style="fill: none; stroke: #2878b5; stroke-width: 1.5"/>
    <path d="M 107.41768 88.992 
L 107.41768 88.992 
" clip-path="url(#pe524798156)" style="fill: none; stroke: #2878b5; stroke-width: 1.5"/>
    <path d="M 118.612665 87.136229 
L 118.612665 78.175771 
" clip-path="url(#pe524798156)" style="fill: none; stroke: #2878b5; stroke-width: 1.5"/>
    <path d="M 129.807649 87.136229 
L 129.807649 78.175771 
" clip-path="url(#pe524798156)" style="fill: none; stroke: #2878b5; stroke-width: 1.5"/>
    <path d="M 141.002633 90.304229 
L 141.002633 81.343771 
" clip-path="url(#pe524798156)" style="fill: none; stroke: #2878b5; stroke-width: 1.5"/>
    <path d="M 152.197618 90.304229 
L 152.197618 81.343771 
" clip-path="url(#pe524798156)" style="fill: none; stroke: #2878b5; stroke-width: 1.5"/>
    <path d="M 163.392602 101.120457 
L 163.392602 83.199543 
" clip-path="url(#pe524798156)" style="fill: none; stroke: #2878b5; stroke-width: 1.5"/>
    <path d="M 174.587586 104.288457 
L 174.587586 86.367543 
" clip-path="url(#pe524798156)" style="fill: none; stroke: #2878b5; stroke-width: 1.5"/>
    <path d="M 185.782571 111.936686 
L 185.782571 85.055314 
" clip-path="url(#pe524798156)" style="fill: none; stroke: #2878b5; stroke-width: 1.5"/>
    <path d="M 196.977555 107.181571 
L 196.977555 83.474429 
" clip-path="url(#pe524798156)" style="fill: none; stroke: #2878b5; stroke-width: 1.5"/>
    <path d="M 208.172539 120.985694 
L 208.172539 88.678306 
" clip-path="url(#pe524798156)" style="fill: none; stroke: #2878b5; stroke-width: 1.5"/>
    <path d="M 219.367524 122.752914 
L 219.367524 86.911086 
" clip-path="url(#pe524798156)" style="fill: none; stroke: #2878b5; stroke-width: 1.5"/>
    <path d="M 230.562508 127.321694 
L 230.562508 95.014306 
" clip-path="url(#pe524798156)" style="fill: none; stroke: #2878b5; stroke-width: 1.5"/>
    <path d="M 241.757492 96.640229 
L 241.757492 87.679771 
" clip-path="url(#pe524798156)" style="fill: none; stroke: #2878b5; stroke-width: 1.5"/>
    <path d="M 252.952476 115.759984 
L 252.952476 100.240016 
" clip-path="url(#pe524798156)" style="fill: none; stroke: #2878b5; stroke-width: 1.5"/>
    <path d="M 264.147461 99.808229 
L 264.147461 90.847771 
" clip-path="url(#pe524798156)" style="fill: none; stroke: #2878b5; stroke-width: 1.5"/>
    <path d="M 275.342445 119.584914 
L 275.342445 83.743086 
" clip-path="url(#pe524798156)" style="fill: none; stroke: #2878b5; stroke-width: 1.5"/>
    <path d="M 286.537429 123.519967 
L 286.537429 92.480033 
" clip-path="url(#pe524798156)" style="fill: none; stroke: #2878b5; stroke-width: 1.5"/>
    <path d="M 297.732414 116.685571 
L 297.732414 92.978429 
" clip-path="url(#pe524798156)" style="fill: none; stroke: #2878b5; stroke-width: 1.5"/>
    <path d="M 308.927398 113.792457 
L 308.927398 95.871543 
" clip-path="url(#pe524798156)" style="fill: none; stroke: #2878b5; stroke-width: 1.5"/>
    <path d="M 320.122382 113.517571 
L 320.122382 89.810429 
" clip-path="url(#pe524798156)" style="fill: none; stroke: #2878b5; stroke-width: 1.5"/>
    <path d="M 331.317367 113.517571 
L 331.317367 89.810429 
" clip-path="url(#pe524798156)" style="fill: none; stroke: #2878b5; stroke-width: 1.5"/>
    <path d="M 342.512351 128.530987 
L 342.512351 87.469013 
" clip-path="url(#pe524798156)" style="fill: none; stroke: #2878b5; stroke-width: 1.5"/>
    <path d="M 353.707335 98.496 
L 353.707335 98.496 
" clip-path="url(#pe524798156)" style="fill: none; stroke: #2878b5; stroke-width: 1.5"/>
    <path d="M 364.90232 106.144229 
L 364.90232 97.183771 
" clip-path="url(#pe524798156)" style="fill: none; stroke: #2878b5; stroke-width: 1.5"/>
    <path d="M 376.097304 107.181571 
L 376.097304 83.474429 
" clip-path="url(#pe524798156)" style="fill: none; stroke: #2878b5; stroke-width: 1.5"/>
    <path d="M 387.292288 152.979388 
L 387.292288 88.364612 
" clip-path="url(#pe524798156)" style="fill: none; stroke: #2878b5; stroke-width: 1.5"/>
    <path d="M 398.487273 129.632457 
L 398.487273 111.711543 
" clip-path="url(#pe524798156)" style="fill: none; stroke: #2878b5; stroke-width: 1.5"/>
   </g>
   <g id="LineCollection_2">
    <path d="M 73.832727 79.488 
L 73.832727 79.488 
" clip-path="url(#pe524798156)" style="fill: none; stroke: #9ac9db; stroke-width: 1.5"/>
    <path d="M 85.027712 99.808229 
L 85.027712 90.847771 
" clip-path="url(#pe524798156)" style="fill: none; stroke: #9ac9db; stroke-width: 1.5"/>
    <path d="M 96.222696 125.263984 
L 96.222696 109.744016 
" clip-path="url(#pe524798156)" style="fill: none; stroke: #9ac9db; stroke-width: 1.5"/>
    <path d="M 107.41768 120.128457 
L 107.41768 102.207543 
" clip-path="url(#pe524798156)" style="fill: none; stroke: #9ac9db; stroke-width: 1.5"/>
    <path d="M 118.612665 161.535967 
L 118.612665 130.496033 
" clip-path="url(#pe524798156)" style="fill: none; stroke: #9ac9db; stroke-width: 1.5"/>
    <path d="M 129.807649 178.216864 
L 129.807649 139.159136 
" clip-path="url(#pe524798156)" style="fill: none; stroke: #9ac9db; stroke-width: 1.5"/>
    <path d="M 141.002633 159.456686 
L 141.002633 132.575314 
" clip-path="url(#pe524798156)" style="fill: none; stroke: #9ac9db; stroke-width: 1.5"/>
    <path d="M 152.197618 198.612166 
L 152.197618 144.107834 
" clip-path="url(#pe524798156)" style="fill: none; stroke: #9ac9db; stroke-width: 1.5"/>
    <path d="M 163.392602 171.039967 
L 163.392602 140.000033 
" clip-path="url(#pe524798156)" style="fill: none; stroke: #9ac9db; stroke-width: 1.5"/>
    <path d="M 174.587586 184.345694 
L 174.587586 152.038306 
" clip-path="url(#pe524798156)" style="fill: none; stroke: #9ac9db; stroke-width: 1.5"/>
    <path d="M 185.782571 195.616914 
L 185.782571 159.775086 
" clip-path="url(#pe524798156)" style="fill: none; stroke: #9ac9db; stroke-width: 1.5"/>
    <path d="M 196.977555 167.104914 
L 196.977555 131.263086 
" clip-path="url(#pe524798156)" style="fill: none; stroke: #9ac9db; stroke-width: 1.5"/>
    <path d="M 208.172539 170.541571 
L 208.172539 146.834429 
" clip-path="url(#pe524798156)" style="fill: none; stroke: #9ac9db; stroke-width: 1.5"/>
    <path d="M 219.367524 198.848984 
L 219.367524 131.199016 
" clip-path="url(#pe524798156)" style="fill: none; stroke: #9ac9db; stroke-width: 1.5"/>
    <path d="M 230.562508 203.353694 
L 230.562508 171.046306 
" clip-path="url(#pe524798156)" style="fill: none; stroke: #9ac9db; stroke-width: 1.5"/>
    <path d="M 241.757492 200.392864 
L 241.757492 161.335136 
" clip-path="url(#pe524798156)" style="fill: none; stroke: #9ac9db; stroke-width: 1.5"/>
    <path d="M 252.952476 199.551967 
L 252.952476 168.512033 
" clip-path="url(#pe524798156)" style="fill: none; stroke: #9ac9db; stroke-width: 1.5"/>
    <path d="M 264.147461 204.571141 
L 264.147461 157.156859 
" clip-path="url(#pe524798156)" style="fill: none; stroke: #9ac9db; stroke-width: 1.5"/>
    <path d="M 275.342445 197.224864 
L 275.342445 158.167136 
" clip-path="url(#pe524798156)" style="fill: none; stroke: #9ac9db; stroke-width: 1.5"/>
    <path d="M 286.537429 195.058987 
L 286.537429 153.997013 
" clip-path="url(#pe524798156)" style="fill: none; stroke: #9ac9db; stroke-width: 1.5"/>
    <path d="M 297.732414 201.403141 
L 297.732414 153.988859 
" clip-path="url(#pe524798156)" style="fill: none; stroke: #9ac9db; stroke-width: 1.5"/>
    <path d="M 308.927398 173.709571 
L 308.927398 150.002429 
" clip-path="url(#pe524798156)" style="fill: none; stroke: #9ac9db; stroke-width: 1.5"/>
    <path d="M 320.122382 208.557571 
L 320.122382 184.850429 
" clip-path="url(#pe524798156)" style="fill: none; stroke: #9ac9db; stroke-width: 1.5"/>
    <path d="M 331.317367 163.168229 
L 331.317367 154.207771 
" clip-path="url(#pe524798156)" style="fill: none; stroke: #9ac9db; stroke-width: 1.5"/>
    <path d="M 342.512351 209.055967 
L 342.512351 178.016033 
" clip-path="url(#pe524798156)" style="fill: none; stroke: #9ac9db; stroke-width: 1.5"/>
    <path d="M 353.707335 159.456686 
L 353.707335 132.575314 
" clip-path="url(#pe524798156)" style="fill: none; stroke: #9ac9db; stroke-width: 1.5"/>
    <path d="M 364.90232 224.816857 
L 364.90232 174.927143 
" clip-path="url(#pe524798156)" style="fill: none; stroke: #9ac9db; stroke-width: 1.5"/>
    <path d="M 376.097304 199.551967 
L 376.097304 168.512033 
" clip-path="url(#pe524798156)" style="fill: none; stroke: #9ac9db; stroke-width: 1.5"/>
    <path d="M 387.292288 185.554987 
L 387.292288 144.493013 
" clip-path="url(#pe524798156)" style="fill: none; stroke: #9ac9db; stroke-width: 1.5"/>
    <path d="M 398.487273 186.656457 
L 398.487273 168.735543 
" clip-path="url(#pe524798156)" style="fill: none; stroke: #9ac9db; stroke-width: 1.5"/>
   </g>
   <g id="LineCollection_3">
    <path d="M 73.832727 79.488 
L 73.832727 79.488 
" clip-path="url(#pe524798156)" style="fill: none; stroke: #f8ac8c; stroke-width: 1.5"/>
    <path d="M 85.027712 161.037571 
L 85.027712 137.330429 
" clip-path="url(#pe524798156)" style="fill: none; stroke: #f8ac8c; stroke-width: 1.5"/>
    <path d="M 96.222696 198.784914 
L 96.222696 162.943086 
" clip-path="url(#pe524798156)" style="fill: none; stroke: #f8ac8c; stroke-width: 1.5"/>
    <path d="M 107.41768 185.940166 
L 107.41768 131.435834 
" clip-path="url(#pe524798156)" style="fill: none; stroke: #f8ac8c; stroke-width: 1.5"/>
    <path d="M 118.612665 207.311951 
L 118.612665 160.752049 
" clip-path="url(#pe524798156)" style="fill: none; stroke: #f8ac8c; stroke-width: 1.5"/>
    <path d="M 129.807649 208.557571 
L 129.807649 184.850429 
" clip-path="url(#pe524798156)" style="fill: none; stroke: #f8ac8c; stroke-width: 1.5"/>
    <path d="M 141.002633 250.2416 
L 141.002633 187.5184 
" clip-path="url(#pe524798156)" style="fill: none; stroke: #f8ac8c; stroke-width: 1.5"/>
    <path d="M 152.197618 222.048 
L 152.197618 222.048 
" clip-path="url(#pe524798156)" style="fill: none; stroke: #f8ac8c; stroke-width: 1.5"/>
    <path d="M 163.392602 247.0736 
L 163.392602 184.3504 
" clip-path="url(#pe524798156)" style="fill: none; stroke: #f8ac8c; stroke-width: 1.5"/>
    <path d="M 174.587586 240.237571 
L 174.587586 216.530429 
" clip-path="url(#pe524798156)" style="fill: none; stroke: #f8ac8c; stroke-width: 1.5"/>
    <path d="M 185.782571 243.680457 
L 185.782571 225.759543 
" clip-path="url(#pe524798156)" style="fill: none; stroke: #f8ac8c; stroke-width: 1.5"/>
    <path d="M 196.977555 259.531018 
L 196.977555 203.572982 
" clip-path="url(#pe524798156)" style="fill: none; stroke: #f8ac8c; stroke-width: 1.5"/>
    <path d="M 208.172539 248.815984 
L 208.172539 233.296016 
" clip-path="url(#pe524798156)" style="fill: none; stroke: #f8ac8c; stroke-width: 1.5"/>
    <path d="M 219.367524 254.496686 
L 219.367524 227.615314 
" clip-path="url(#pe524798156)" style="fill: none; stroke: #f8ac8c; stroke-width: 1.5"/>
    <path d="M 230.562508 237.069571 
L 230.562508 213.362429 
" clip-path="url(#pe524798156)" style="fill: none; stroke: #f8ac8c; stroke-width: 1.5"/>
    <path d="M 241.757492 220.192229 
L 241.757492 211.231771 
" clip-path="url(#pe524798156)" style="fill: none; stroke: #f8ac8c; stroke-width: 1.5"/>
    <path d="M 252.952476 253.328857 
L 252.952476 203.439143 
" clip-path="url(#pe524798156)" style="fill: none; stroke: #f8ac8c; stroke-width: 1.5"/>
    <path d="M 264.147461 249.741571 
L 264.147461 226.034429 
" clip-path="url(#pe524798156)" style="fill: none; stroke: #f8ac8c; stroke-width: 1.5"/>
    <path d="M 275.342445 237.344457 
L 275.342445 219.423543 
" clip-path="url(#pe524798156)" style="fill: none; stroke: #f8ac8c; stroke-width: 1.5"/>
    <path d="M 286.537429 242.368229 
L 286.537429 233.407771 
" clip-path="url(#pe524798156)" style="fill: none; stroke: #f8ac8c; stroke-width: 1.5"/>
    <path d="M 297.732414 242.368229 
L 297.732414 233.407771 
" clip-path="url(#pe524798156)" style="fill: none; stroke: #f8ac8c; stroke-width: 1.5"/>
    <path d="M 308.927398 250.873694 
L 308.927398 218.566306 
" clip-path="url(#pe524798156)" style="fill: none; stroke: #f8ac8c; stroke-width: 1.5"/>
    <path d="M 320.122382 246.573571 
L 320.122382 222.866429 
" clip-path="url(#pe524798156)" style="fill: none; stroke: #f8ac8c; stroke-width: 1.5"/>
    <path d="M 331.317367 255.808914 
L 331.317367 219.967086 
" clip-path="url(#pe524798156)" style="fill: none; stroke: #f8ac8c; stroke-width: 1.5"/>
    <path d="M 342.512351 263.545694 
L 342.512351 231.238306 
" clip-path="url(#pe524798156)" style="fill: none; stroke: #f8ac8c; stroke-width: 1.5"/>
    <path d="M 353.707335 256.352457 
L 353.707335 238.431543 
" clip-path="url(#pe524798156)" style="fill: none; stroke: #f8ac8c; stroke-width: 1.5"/>
    <path d="M 364.90232 256.352457 
L 364.90232 238.431543 
" clip-path="url(#pe524798156)" style="fill: none; stroke: #f8ac8c; stroke-width: 1.5"/>
    <path d="M 376.097304 267.931141 
L 376.097304 220.516859 
" clip-path="url(#pe524798156)" style="fill: none; stroke: #f8ac8c; stroke-width: 1.5"/>
    <path d="M 387.292288 259.245571 
L 387.292288 235.538429 
" clip-path="url(#pe524798156)" style="fill: none; stroke: #f8ac8c; stroke-width: 1.5"/>
    <path d="M 398.487273 248.815984 
L 398.487273 233.296016 
" clip-path="url(#pe524798156)" style="fill: none; stroke: #f8ac8c; stroke-width: 1.5"/>
   </g>
   <g id="LineCollection_4">
    <path d="M 73.832727 79.488 
L 73.832727 79.488 
" clip-path="url(#pe524798156)" style="fill: none; stroke: #c82423; stroke-width: 1.5"/>
    <path d="M 85.027712 233.632914 
L 85.027712 197.791086 
" clip-path="url(#pe524798156)" style="fill: none; stroke: #c82423; stroke-width: 1.5"/>
    <path d="M 96.222696 257.416864 
L 96.222696 218.359136 
" clip-path="url(#pe524798156)" style="fill: none; stroke: #c82423; stroke-width: 1.5"/>
    <path d="M 107.41768 257.416864 
L 107.41768 218.359136 
" clip-path="url(#pe524798156)" style="fill: none; stroke: #c82423; stroke-width: 1.5"/>
    <path d="M 118.612665 267.712229 
L 118.612665 258.751771 
" clip-path="url(#pe524798156)" style="fill: none; stroke: #c82423; stroke-width: 1.5"/>
    <path d="M 129.807649 262.688457 
L 129.807649 244.767543 
" clip-path="url(#pe524798156)" style="fill: none; stroke: #c82423; stroke-width: 1.5"/>
    <path d="M 141.002633 262.688457 
L 141.002633 244.767543 
" clip-path="url(#pe524798156)" style="fill: none; stroke: #c82423; stroke-width: 1.5"/>
    <path d="M 152.197618 267.712229 
L 152.197618 258.751771 
" clip-path="url(#pe524798156)" style="fill: none; stroke: #c82423; stroke-width: 1.5"/>
    <path d="M 163.392602 261.376229 
L 163.392602 252.415771 
" clip-path="url(#pe524798156)" style="fill: none; stroke: #c82423; stroke-width: 1.5"/>
    <path d="M 174.587586 241.056 
L 174.587586 241.056 
" clip-path="url(#pe524798156)" style="fill: none; stroke: #c82423; stroke-width: 1.5"/>
    <path d="M 185.782571 258.319984 
L 185.782571 242.800016 
" clip-path="url(#pe524798156)" style="fill: none; stroke: #c82423; stroke-width: 1.5"/>
    <path d="M 196.977555 270.880229 
L 196.977555 261.919771 
" clip-path="url(#pe524798156)" style="fill: none; stroke: #c82423; stroke-width: 1.5"/>
    <path d="M 208.172539 258.208229 
L 208.172539 249.247771 
" clip-path="url(#pe524798156)" style="fill: none; stroke: #c82423; stroke-width: 1.5"/>
    <path d="M 219.367524 269.568 
L 219.367524 269.568 
" clip-path="url(#pe524798156)" style="fill: none; stroke: #c82423; stroke-width: 1.5"/>
    <path d="M 230.562508 269.568 
L 230.562508 269.568 
" clip-path="url(#pe524798156)" style="fill: none; stroke: #c82423; stroke-width: 1.5"/>
    <path d="M 241.757492 273.504686 
L 241.757492 246.623314 
" clip-path="url(#pe524798156)" style="fill: none; stroke: #c82423; stroke-width: 1.5"/>
    <path d="M 252.952476 267.823984 
L 252.952476 252.304016 
" clip-path="url(#pe524798156)" style="fill: none; stroke: #c82423; stroke-width: 1.5"/>
    <path d="M 264.147461 269.881694 
L 264.147461 237.574306 
" clip-path="url(#pe524798156)" style="fill: none; stroke: #c82423; stroke-width: 1.5"/>
    <path d="M 275.342445 270.880229 
L 275.342445 261.919771 
" clip-path="url(#pe524798156)" style="fill: none; stroke: #c82423; stroke-width: 1.5"/>
    <path d="M 286.537429 270.880229 
L 286.537429 261.919771 
" clip-path="url(#pe524798156)" style="fill: none; stroke: #c82423; stroke-width: 1.5"/>
    <path d="M 297.732414 268.749571 
L 297.732414 245.042429 
" clip-path="url(#pe524798156)" style="fill: none; stroke: #c82423; stroke-width: 1.5"/>
    <path d="M 308.927398 262.688457 
L 308.927398 244.767543 
" clip-path="url(#pe524798156)" style="fill: none; stroke: #c82423; stroke-width: 1.5"/>
    <path d="M 320.122382 270.880229 
L 320.122382 261.919771 
" clip-path="url(#pe524798156)" style="fill: none; stroke: #c82423; stroke-width: 1.5"/>
    <path d="M 331.317367 267.712229 
L 331.317367 258.751771 
" clip-path="url(#pe524798156)" style="fill: none; stroke: #c82423; stroke-width: 1.5"/>
    <path d="M 342.512351 269.568 
L 342.512351 269.568 
" clip-path="url(#pe524798156)" style="fill: none; stroke: #c82423; stroke-width: 1.5"/>
    <path d="M 353.707335 270.880229 
L 353.707335 261.919771 
" clip-path="url(#pe524798156)" style="fill: none; stroke: #c82423; stroke-width: 1.5"/>
    <path d="M 364.90232 270.880229 
L 364.90232 261.919771 
" clip-path="url(#pe524798156)" style="fill: none; stroke: #c82423; stroke-width: 1.5"/>
    <path d="M 376.097304 270.880229 
L 376.097304 261.919771 
" clip-path="url(#pe524798156)" style="fill: none; stroke: #c82423; stroke-width: 1.5"/>
    <path d="M 387.292288 270.880229 
L 387.292288 261.919771 
" clip-path="url(#pe524798156)" style="fill: none; stroke: #c82423; stroke-width: 1.5"/>
    <path d="M 398.487273 260.064 
L 398.487273 260.064 
" clip-path="url(#pe524798156)" style="fill: none; stroke: #c82423; stroke-width: 1.5"/>
   </g>
   <g id="line2d_16">
    <path d="M 73.832727 79.488 
L 85.027712 82.656 
L 96.222696 79.488 
L 107.41768 88.992 
L 118.612665 82.656 
L 129.807649 82.656 
L 141.002633 85.824 
L 152.197618 85.824 
L 163.392602 92.16 
L 174.587586 95.328 
L 185.782571 98.496 
L 196.977555 95.328 
L 208.172539 104.832 
L 219.367524 104.832 
L 230.562508 111.168 
L 241.757492 92.16 
L 252.952476 108 
L 264.147461 95.328 
L 275.342445 101.664 
L 286.537429 108 
L 297.732414 104.832 
L 308.927398 104.832 
L 320.122382 101.664 
L 331.317367 101.664 
L 342.512351 108 
L 353.707335 98.496 
L 364.90232 101.664 
L 376.097304 95.328 
L 387.292288 120.672 
L 398.487273 120.672 
" clip-path="url(#pe524798156)" style="fill: none; stroke: #2878b5; stroke-width: 1.5; stroke-linecap: square"/>
    <defs>
     <path id="m4374d09b2d" d="M 0 3 
C 0.795609 3 1.55874 2.683901 2.12132 2.12132 
C 2.683901 1.55874 3 0.795609 3 0 
C 3 -0.795609 2.683901 -1.55874 2.12132 -2.12132 
C 1.55874 -2.683901 0.795609 -3 0 -3 
C -0.795609 -3 -1.55874 -2.683901 -2.12132 -2.12132 
C -2.683901 -1.55874 -3 -0.795609 -3 0 
C -3 0.795609 -2.683901 1.55874 -2.12132 2.12132 
C -1.55874 2.683901 -0.795609 3 0 3 
z
" style="stroke: #2878b5"/>
    </defs>
    <g clip-path="url(#pe524798156)">
     <use xlink:href="#m4374d09b2d" x="73.832727" y="79.488" style="fill: #2878b5; stroke: #2878b5"/>
     <use xlink:href="#m4374d09b2d" x="85.027712" y="82.656" style="fill: #2878b5; stroke: #2878b5"/>
     <use xlink:href="#m4374d09b2d" x="96.222696" y="79.488" style="fill: #2878b5; stroke: #2878b5"/>
     <use xlink:href="#m4374d09b2d" x="107.41768" y="88.992" style="fill: #2878b5; stroke: #2878b5"/>
     <use xlink:href="#m4374d09b2d" x="118.612665" y="82.656" style="fill: #2878b5; stroke: #2878b5"/>
     <use xlink:href="#m4374d09b2d" x="129.807649" y="82.656" style="fill: #2878b5; stroke: #2878b5"/>
     <use xlink:href="#m4374d09b2d" x="141.002633" y="85.824" style="fill: #2878b5; stroke: #2878b5"/>
     <use xlink:href="#m4374d09b2d" x="152.197618" y="85.824" style="fill: #2878b5; stroke: #2878b5"/>
     <use xlink:href="#m4374d09b2d" x="163.392602" y="92.16" style="fill: #2878b5; stroke: #2878b5"/>
     <use xlink:href="#m4374d09b2d" x="174.587586" y="95.328" style="fill: #2878b5; stroke: #2878b5"/>
     <use xlink:href="#m4374d09b2d" x="185.782571" y="98.496" style="fill: #2878b5; stroke: #2878b5"/>
     <use xlink:href="#m4374d09b2d" x="196.977555" y="95.328" style="fill: #2878b5; stroke: #2878b5"/>
     <use xlink:href="#m4374d09b2d" x="208.172539" y="104.832" style="fill: #2878b5; stroke: #2878b5"/>
     <use xlink:href="#m4374d09b2d" x="219.367524" y="104.832" style="fill: #2878b5; stroke: #2878b5"/>
     <use xlink:href="#m4374d09b2d" x="230.562508" y="111.168" style="fill: #2878b5; stroke: #2878b5"/>
     <use xlink:href="#m4374d09b2d" x="241.757492" y="92.16" style="fill: #2878b5; stroke: #2878b5"/>
     <use xlink:href="#m4374d09b2d" x="252.952476" y="108" style="fill: #2878b5; stroke: #2878b5"/>
     <use xlink:href="#m4374d09b2d" x="264.147461" y="95.328" style="fill: #2878b5; stroke: #2878b5"/>
     <use xlink:href="#m4374d09b2d" x="275.342445" y="101.664" style="fill: #2878b5; stroke: #2878b5"/>
     <use xlink:href="#m4374d09b2d" x="286.537429" y="108" style="fill: #2878b5; stroke: #2878b5"/>
     <use xlink:href="#m4374d09b2d" x="297.732414" y="104.832" style="fill: #2878b5; stroke: #2878b5"/>
     <use xlink:href="#m4374d09b2d" x="308.927398" y="104.832" style="fill: #2878b5; stroke: #2878b5"/>
     <use xlink:href="#m4374d09b2d" x="320.122382" y="101.664" style="fill: #2878b5; stroke: #2878b5"/>
     <use xlink:href="#m4374d09b2d" x="331.317367" y="101.664" style="fill: #2878b5; stroke: #2878b5"/>
     <use xlink:href="#m4374d09b2d" x="342.512351" y="108" style="fill: #2878b5; stroke: #2878b5"/>
     <use xlink:href="#m4374d09b2d" x="353.707335" y="98.496" style="fill: #2878b5; stroke: #2878b5"/>
     <use xlink:href="#m4374d09b2d" x="364.90232" y="101.664" style="fill: #2878b5; stroke: #2878b5"/>
     <use xlink:href="#m4374d09b2d" x="376.097304" y="95.328" style="fill: #2878b5; stroke: #2878b5"/>
     <use xlink:href="#m4374d09b2d" x="387.292288" y="120.672" style="fill: #2878b5; stroke: #2878b5"/>
     <use xlink:href="#m4374d09b2d" x="398.487273" y="120.672" style="fill: #2878b5; stroke: #2878b5"/>
    </g>
   </g>
   <g id="line2d_17">
    <path d="M 73.832727 79.488 
L 85.027712 95.328 
L 96.222696 117.504 
L 107.41768 111.168 
L 118.612665 146.016 
L 129.807649 158.688 
L 141.002633 146.016 
L 152.197618 171.36 
L 163.392602 155.52 
L 174.587586 168.192 
L 185.782571 177.696 
L 196.977555 149.184 
L 208.172539 158.688 
L 219.367524 165.024 
L 230.562508 187.2 
L 241.757492 180.864 
L 252.952476 184.032 
L 264.147461 180.864 
L 275.342445 177.696 
L 286.537429 174.528 
L 297.732414 177.696 
L 308.927398 161.856 
L 320.122382 196.704 
L 331.317367 158.688 
L 342.512351 193.536 
L 353.707335 146.016 
L 364.90232 199.872 
L 376.097304 184.032 
L 387.292288 165.024 
L 398.487273 177.696 
" clip-path="url(#pe524798156)" style="fill: none; stroke: #9ac9db; stroke-width: 1.5; stroke-linecap: square"/>
    <defs>
     <path id="mf7a726ca99" d="M 0 3 
C 0.795609 3 1.55874 2.683901 2.12132 2.12132 
C 2.683901 1.55874 3 0.795609 3 0 
C 3 -0.795609 2.683901 -1.55874 2.12132 -2.12132 
C 1.55874 -2.683901 0.795609 -3 0 -3 
C -0.795609 -3 -1.55874 -2.683901 -2.12132 -2.12132 
C -2.683901 -1.55874 -3 -0.795609 -3 0 
C -3 0.795609 -2.683901 1.55874 -2.12132 2.12132 
C -1.55874 2.683901 -0.795609 3 0 3 
z
" style="stroke: #9ac9db"/>
    </defs>
    <g clip-path="url(#pe524798156)">
     <use xlink:href="#mf7a726ca99" x="73.832727" y="79.488" style="fill: #9ac9db; stroke: #9ac9db"/>
     <use xlink:href="#mf7a726ca99" x="85.027712" y="95.328" style="fill: #9ac9db; stroke: #9ac9db"/>
     <use xlink:href="#mf7a726ca99" x="96.222696" y="117.504" style="fill: #9ac9db; stroke: #9ac9db"/>
     <use xlink:href="#mf7a726ca99" x="107.41768" y="111.168" style="fill: #9ac9db; stroke: #9ac9db"/>
     <use xlink:href="#mf7a726ca99" x="118.612665" y="146.016" style="fill: #9ac9db; stroke: #9ac9db"/>
     <use xlink:href="#mf7a726ca99" x="129.807649" y="158.688" style="fill: #9ac9db; stroke: #9ac9db"/>
     <use xlink:href="#mf7a726ca99" x="141.002633" y="146.016" style="fill: #9ac9db; stroke: #9ac9db"/>
     <use xlink:href="#mf7a726ca99" x="152.197618" y="171.36" style="fill: #9ac9db; stroke: #9ac9db"/>
     <use xlink:href="#mf7a726ca99" x="163.392602" y="155.52" style="fill: #9ac9db; stroke: #9ac9db"/>
     <use xlink:href="#mf7a726ca99" x="174.587586" y="168.192" style="fill: #9ac9db; stroke: #9ac9db"/>
     <use xlink:href="#mf7a726ca99" x="185.782571" y="177.696" style="fill: #9ac9db; stroke: #9ac9db"/>
     <use xlink:href="#mf7a726ca99" x="196.977555" y="149.184" style="fill: #9ac9db; stroke: #9ac9db"/>
     <use xlink:href="#mf7a726ca99" x="208.172539" y="158.688" style="fill: #9ac9db; stroke: #9ac9db"/>
     <use xlink:href="#mf7a726ca99" x="219.367524" y="165.024" style="fill: #9ac9db; stroke: #9ac9db"/>
     <use xlink:href="#mf7a726ca99" x="230.562508" y="187.2" style="fill: #9ac9db; stroke: #9ac9db"/>
     <use xlink:href="#mf7a726ca99" x="241.757492" y="180.864" style="fill: #9ac9db; stroke: #9ac9db"/>
     <use xlink:href="#mf7a726ca99" x="252.952476" y="184.032" style="fill: #9ac9db; stroke: #9ac9db"/>
     <use xlink:href="#mf7a726ca99" x="264.147461" y="180.864" style="fill: #9ac9db; stroke: #9ac9db"/>
     <use xlink:href="#mf7a726ca99" x="275.342445" y="177.696" style="fill: #9ac9db; stroke: #9ac9db"/>
     <use xlink:href="#mf7a726ca99" x="286.537429" y="174.528" style="fill: #9ac9db; stroke: #9ac9db"/>
     <use xlink:href="#mf7a726ca99" x="297.732414" y="177.696" style="fill: #9ac9db; stroke: #9ac9db"/>
     <use xlink:href="#mf7a726ca99" x="308.927398" y="161.856" style="fill: #9ac9db; stroke: #9ac9db"/>
     <use xlink:href="#mf7a726ca99" x="320.122382" y="196.704" style="fill: #9ac9db; stroke: #9ac9db"/>
     <use xlink:href="#mf7a726ca99" x="331.317367" y="158.688" style="fill: #9ac9db; stroke: #9ac9db"/>
     <use xlink:href="#mf7a726ca99" x="342.512351" y="193.536" style="fill: #9ac9db; stroke: #9ac9db"/>
     <use xlink:href="#mf7a726ca99" x="353.707335" y="146.016" style="fill: #9ac9db; stroke: #9ac9db"/>
     <use xlink:href="#mf7a726ca99" x="364.90232" y="199.872" style="fill: #9ac9db; stroke: #9ac9db"/>
     <use xlink:href="#mf7a726ca99" x="376.097304" y="184.032" style="fill: #9ac9db; stroke: #9ac9db"/>
     <use xlink:href="#mf7a726ca99" x="387.292288" y="165.024" style="fill: #9ac9db; stroke: #9ac9db"/>
     <use xlink:href="#mf7a726ca99" x="398.487273" y="177.696" style="fill: #9ac9db; stroke: #9ac9db"/>
    </g>
   </g>
   <g id="line2d_18">
    <path d="M 73.832727 79.488 
L 85.027712 149.184 
L 96.222696 180.864 
L 107.41768 158.688 
L 118.612665 184.032 
L 129.807649 196.704 
L 141.002633 218.88 
L 152.197618 222.048 
L 163.392602 215.712 
L 174.587586 228.384 
L 185.782571 234.72 
L 196.977555 231.552 
L 208.172539 241.056 
L 219.367524 241.056 
L 230.562508 225.216 
L 241.757492 215.712 
L 252.952476 228.384 
L 264.147461 237.888 
L 275.342445 228.384 
L 286.537429 237.888 
L 297.732414 237.888 
L 308.927398 234.72 
L 320.122382 234.72 
L 331.317367 237.888 
L 342.512351 247.392 
L 353.707335 247.392 
L 364.90232 247.392 
L 376.097304 244.224 
L 387.292288 247.392 
L 398.487273 241.056 
" clip-path="url(#pe524798156)" style="fill: none; stroke: #f8ac8c; stroke-width: 1.5; stroke-linecap: square"/>
    <defs>
     <path id="mf4e2452a04" d="M 0 3 
C 0.795609 3 1.55874 2.683901 2.12132 2.12132 
C 2.683901 1.55874 3 0.795609 3 0 
C 3 -0.795609 2.683901 -1.55874 2.12132 -2.12132 
C 1.55874 -2.683901 0.795609 -3 0 -3 
C -0.795609 -3 -1.55874 -2.683901 -2.12132 -2.12132 
C -2.683901 -1.55874 -3 -0.795609 -3 0 
C -3 0.795609 -2.683901 1.55874 -2.12132 2.12132 
C -1.55874 2.683901 -0.795609 3 0 3 
z
" style="stroke: #f8ac8c"/>
    </defs>
    <g clip-path="url(#pe524798156)">
     <use xlink:href="#mf4e2452a04" x="73.832727" y="79.488" style="fill: #f8ac8c; stroke: #f8ac8c"/>
     <use xlink:href="#mf4e2452a04" x="85.027712" y="149.184" style="fill: #f8ac8c; stroke: #f8ac8c"/>
     <use xlink:href="#mf4e2452a04" x="96.222696" y="180.864" style="fill: #f8ac8c; stroke: #f8ac8c"/>
     <use xlink:href="#mf4e2452a04" x="107.41768" y="158.688" style="fill: #f8ac8c; stroke: #f8ac8c"/>
     <use xlink:href="#mf4e2452a04" x="118.612665" y="184.032" style="fill: #f8ac8c; stroke: #f8ac8c"/>
     <use xlink:href="#mf4e2452a04" x="129.807649" y="196.704" style="fill: #f8ac8c; stroke: #f8ac8c"/>
     <use xlink:href="#mf4e2452a04" x="141.002633" y="218.88" style="fill: #f8ac8c; stroke: #f8ac8c"/>
     <use xlink:href="#mf4e2452a04" x="152.197618" y="222.048" style="fill: #f8ac8c; stroke: #f8ac8c"/>
     <use xlink:href="#mf4e2452a04" x="163.392602" y="215.712" style="fill: #f8ac8c; stroke: #f8ac8c"/>
     <use xlink:href="#mf4e2452a04" x="174.587586" y="228.384" style="fill: #f8ac8c; stroke: #f8ac8c"/>
     <use xlink:href="#mf4e2452a04" x="185.782571" y="234.72" style="fill: #f8ac8c; stroke: #f8ac8c"/>
     <use xlink:href="#mf4e2452a04" x="196.977555" y="231.552" style="fill: #f8ac8c; stroke: #f8ac8c"/>
     <use xlink:href="#mf4e2452a04" x="208.172539" y="241.056" style="fill: #f8ac8c; stroke: #f8ac8c"/>
     <use xlink:href="#mf4e2452a04" x="219.367524" y="241.056" style="fill: #f8ac8c; stroke: #f8ac8c"/>
     <use xlink:href="#mf4e2452a04" x="230.562508" y="225.216" style="fill: #f8ac8c; stroke: #f8ac8c"/>
     <use xlink:href="#mf4e2452a04" x="241.757492" y="215.712" style="fill: #f8ac8c; stroke: #f8ac8c"/>
     <use xlink:href="#mf4e2452a04" x="252.952476" y="228.384" style="fill: #f8ac8c; stroke: #f8ac8c"/>
     <use xlink:href="#mf4e2452a04" x="264.147461" y="237.888" style="fill: #f8ac8c; stroke: #f8ac8c"/>
     <use xlink:href="#mf4e2452a04" x="275.342445" y="228.384" style="fill: #f8ac8c; stroke: #f8ac8c"/>
     <use xlink:href="#mf4e2452a04" x="286.537429" y="237.888" style="fill: #f8ac8c; stroke: #f8ac8c"/>
     <use xlink:href="#mf4e2452a04" x="297.732414" y="237.888" style="fill: #f8ac8c; stroke: #f8ac8c"/>
     <use xlink:href="#mf4e2452a04" x="308.927398" y="234.72" style="fill: #f8ac8c; stroke: #f8ac8c"/>
     <use xlink:href="#mf4e2452a04" x="320.122382" y="234.72" style="fill: #f8ac8c; stroke: #f8ac8c"/>
     <use xlink:href="#mf4e2452a04" x="331.317367" y="237.888" style="fill: #f8ac8c; stroke: #f8ac8c"/>
     <use xlink:href="#mf4e2452a04" x="342.512351" y="247.392" style="fill: #f8ac8c; stroke: #f8ac8c"/>
     <use xlink:href="#mf4e2452a04" x="353.707335" y="247.392" style="fill: #f8ac8c; stroke: #f8ac8c"/>
     <use xlink:href="#mf4e2452a04" x="364.90232" y="247.392" style="fill: #f8ac8c; stroke: #f8ac8c"/>
     <use xlink:href="#mf4e2452a04" x="376.097304" y="244.224" style="fill: #f8ac8c; stroke: #f8ac8c"/>
     <use xlink:href="#mf4e2452a04" x="387.292288" y="247.392" style="fill: #f8ac8c; stroke: #f8ac8c"/>
     <use xlink:href="#mf4e2452a04" x="398.487273" y="241.056" style="fill: #f8ac8c; stroke: #f8ac8c"/>
    </g>
   </g>
   <g id="line2d_19">
    <path d="M 73.832727 79.488 
L 85.027712 215.712 
L 96.222696 237.888 
L 107.41768 237.888 
L 118.612665 263.232 
L 129.807649 253.728 
L 141.002633 253.728 
L 152.197618 263.232 
L 163.392602 256.896 
L 174.587586 241.056 
L 185.782571 250.56 
L 196.977555 266.4 
L 208.172539 253.728 
L 219.367524 269.568 
L 230.562508 269.568 
L 241.757492 260.064 
L 252.952476 260.064 
L 264.147461 253.728 
L 275.342445 266.4 
L 286.537429 266.4 
L 297.732414 256.896 
L 308.927398 253.728 
L 320.122382 266.4 
L 331.317367 263.232 
L 342.512351 269.568 
L 353.707335 266.4 
L 364.90232 266.4 
L 376.097304 266.4 
L 387.292288 266.4 
L 398.487273 260.064 
" clip-path="url(#pe524798156)" style="fill: none; stroke: #c82423; stroke-width: 1.5; stroke-linecap: square"/>
    <defs>
     <path id="mc3e7dd6ca9" d="M 0 3 
C 0.795609 3 1.55874 2.683901 2.12132 2.12132 
C 2.683901 1.55874 3 0.795609 3 0 
C 3 -0.795609 2.683901 -1.55874 2.12132 -2.12132 
C 1.55874 -2.683901 0.795609 -3 0 -3 
C -0.795609 -3 -1.55874 -2.683901 -2.12132 -2.12132 
C -2.683901 -1.55874 -3 -0.795609 -3 0 
C -3 0.795609 -2.683901 1.55874 -2.12132 2.12132 
C -1.55874 2.683901 -0.795609 3 0 3 
z
" style="stroke: #c82423"/>
    </defs>
    <g clip-path="url(#pe524798156)">
     <use xlink:href="#mc3e7dd6ca9" x="73.832727" y="79.488" style="fill: #c82423; stroke: #c82423"/>
     <use xlink:href="#mc3e7dd6ca9" x="85.027712" y="215.712" style="fill: #c82423; stroke: #c82423"/>
     <use xlink:href="#mc3e7dd6ca9" x="96.222696" y="237.888" style="fill: #c82423; stroke: #c82423"/>
     <use xlink:href="#mc3e7dd6ca9" x="107.41768" y="237.888" style="fill: #c82423; stroke: #c82423"/>
     <use xlink:href="#mc3e7dd6ca9" x="118.612665" y="263.232" style="fill: #c82423; stroke: #c82423"/>
     <use xlink:href="#mc3e7dd6ca9" x="129.807649" y="253.728" style="fill: #c82423; stroke: #c82423"/>
     <use xlink:href="#mc3e7dd6ca9" x="141.002633" y="253.728" style="fill: #c82423; stroke: #c82423"/>
     <use xlink:href="#mc3e7dd6ca9" x="152.197618" y="263.232" style="fill: #c82423; stroke: #c82423"/>
     <use xlink:href="#mc3e7dd6ca9" x="163.392602" y="256.896" style="fill: #c82423; stroke: #c82423"/>
     <use xlink:href="#mc3e7dd6ca9" x="174.587586" y="241.056" style="fill: #c82423; stroke: #c82423"/>
     <use xlink:href="#mc3e7dd6ca9" x="185.782571" y="250.56" style="fill: #c82423; stroke: #c82423"/>
     <use xlink:href="#mc3e7dd6ca9" x="196.977555" y="266.4" style="fill: #c82423; stroke: #c82423"/>
     <use xlink:href="#mc3e7dd6ca9" x="208.172539" y="253.728" style="fill: #c82423; stroke: #c82423"/>
     <use xlink:href="#mc3e7dd6ca9" x="219.367524" y="269.568" style="fill: #c82423; stroke: #c82423"/>
     <use xlink:href="#mc3e7dd6ca9" x="230.562508" y="269.568" style="fill: #c82423; stroke: #c82423"/>
     <use xlink:href="#mc3e7dd6ca9" x="241.757492" y="260.064" style="fill: #c82423; stroke: #c82423"/>
     <use xlink:href="#mc3e7dd6ca9" x="252.952476" y="260.064" style="fill: #c82423; stroke: #c82423"/>
     <use xlink:href="#mc3e7dd6ca9" x="264.147461" y="253.728" style="fill: #c82423; stroke: #c82423"/>
     <use xlink:href="#mc3e7dd6ca9" x="275.342445" y="266.4" style="fill: #c82423; stroke: #c82423"/>
     <use xlink:href="#mc3e7dd6ca9" x="286.537429" y="266.4" style="fill: #c82423; stroke: #c82423"/>
     <use xlink:href="#mc3e7dd6ca9" x="297.732414" y="256.896" style="fill: #c82423; stroke: #c82423"/>
     <use xlink:href="#mc3e7dd6ca9" x="308.927398" y="253.728" style="fill: #c82423; stroke: #c82423"/>
     <use xlink:href="#mc3e7dd6ca9" x="320.122382" y="266.4" style="fill: #c82423; stroke: #c82423"/>
     <use xlink:href="#mc3e7dd6ca9" x="331.317367" y="263.232" style="fill: #c82423; stroke: #c82423"/>
     <use xlink:href="#mc3e7dd6ca9" x="342.512351" y="269.568" style="fill: #c82423; stroke: #c82423"/>
     <use xlink:href="#mc3e7dd6ca9" x="353.707335" y="266.4" style="fill: #c82423; stroke: #c82423"/>
     <use xlink:href="#mc3e7dd6ca9" x="364.90232" y="266.4" style="fill: #c82423; stroke: #c82423"/>
     <use xlink:href="#mc3e7dd6ca9" x="376.097304" y="266.4" style="fill: #c82423; stroke: #c82423"/>
     <use xlink:href="#mc3e7dd6ca9" x="387.292288" y="266.4" style="fill: #c82423; stroke: #c82423"/>
     <use xlink:href="#mc3e7dd6ca9" x="398.487273" y="260.064" style="fill: #c82423; stroke: #c82423"/>
    </g>
   </g>
   <g id="patch_3">
    <path d="M 57.6 307.584 
L 57.6 41.472 
" style="fill: none; stroke: #000000; stroke-width: 0.8; stroke-linejoin: miter; stroke-linecap: square"/>
   </g>
   <g id="patch_4">
    <path d="M 414.72 307.584 
L 414.72 41.472 
" style="fill: none; stroke: #000000; stroke-width: 0.8; stroke-linejoin: miter; stroke-linecap: square"/>
   </g>
   <g id="patch_5">
    <path d="M 57.6 307.584 
L 414.72 307.584 
" style="fill: none; stroke: #000000; stroke-width: 0.8; stroke-linejoin: miter; stroke-linecap: square"/>
   </g>
   <g id="patch_6">
    <path d="M 57.6 41.472 
L 414.72 41.472 
" style="fill: none; stroke: #000000; stroke-width: 0.8; stroke-linejoin: miter; stroke-linecap: square"/>
   </g>
   <g id="legend_1">
    <g id="patch_7">
     <path d="M 64.6 302.584 
L 193.929688 302.584 
Q 195.929688 302.584 195.929688 300.584 
L 195.929688 242.8715 
Q 195.929688 240.8715 193.929688 240.8715 
L 64.6 240.8715 
Q 62.6 240.8715 62.6 242.8715 
L 62.6 300.584 
Q 62.6 302.584 64.6 302.584 
z
" style="fill: #ffffff; opacity: 0.8; stroke: #cccccc; stroke-linejoin: miter"/>
    </g>
    <g id="LineCollection_5">
     <path d="M 76.6 253.969937 
L 76.6 243.969937 
" style="fill: none; stroke: #2878b5; stroke-width: 1.5"/>
    </g>
    <g id="line2d_20">
     <path d="M 66.6 248.969937 
L 86.6 248.969937 
" style="fill: none; stroke: #2878b5; stroke-width: 1.5; stroke-linecap: square"/>
    </g>
    <g id="line2d_21">
     <g>
      <use xlink:href="#m4374d09b2d" x="76.6" y="248.969937" style="fill: #2878b5; stroke: #2878b5"/>
     </g>
    </g>
    <g id="text_18">
     <!-- Reduction ratio=0 -->
     <g transform="translate(94.6 252.469937) scale(0.1 -0.1)">
      <defs>
       <path id="DejaVuSans-64" d="M 2906 2969 
L 2906 4863 
L 3481 4863 
L 3481 0 
L 2906 0 
L 2906 525 
Q 2725 213 2448 61 
Q 2172 -91 1784 -91 
Q 1150 -91 751 415 
Q 353 922 353 1747 
Q 353 2572 751 3078 
Q 1150 3584 1784 3584 
Q 2172 3584 2448 3432 
Q 2725 3281 2906 2969 
z
M 947 1747 
Q 947 1113 1208 752 
Q 1469 391 1925 391 
Q 2381 391 2643 752 
Q 2906 1113 2906 1747 
Q 2906 2381 2643 2742 
Q 2381 3103 1925 3103 
Q 1469 3103 1208 2742 
Q 947 2381 947 1747 
z
" transform="scale(0.015625)"/>
       <path id="DejaVuSans-3d" d="M 678 2906 
L 4684 2906 
L 4684 2381 
L 678 2381 
L 678 2906 
z
M 678 1631 
L 4684 1631 
L 4684 1100 
L 678 1100 
L 678 1631 
z
" transform="scale(0.015625)"/>
      </defs>
      <use xlink:href="#DejaVuSans-52"/>
      <use xlink:href="#DejaVuSans-65" x="64.982422"/>
      <use xlink:href="#DejaVuSans-64" x="126.505859"/>
      <use xlink:href="#DejaVuSans-75" x="189.982422"/>
      <use xlink:href="#DejaVuSans-63" x="253.361328"/>
      <use xlink:href="#DejaVuSans-74" x="308.341797"/>
      <use xlink:href="#DejaVuSans-69" x="347.550781"/>
      <use xlink:href="#DejaVuSans-6f" x="375.333984"/>
      <use xlink:href="#DejaVuSans-6e" x="436.515625"/>
      <use xlink:href="#DejaVuSans-20" x="499.894531"/>
      <use xlink:href="#DejaVuSans-72" x="531.681641"/>
      <use xlink:href="#DejaVuSans-61" x="572.794922"/>
      <use xlink:href="#DejaVuSans-74" x="634.074219"/>
      <use xlink:href="#DejaVuSans-69" x="673.283203"/>
      <use xlink:href="#DejaVuSans-6f" x="701.066406"/>
      <use xlink:href="#DejaVuSans-3d" x="762.248047"/>
      <use xlink:href="#DejaVuSans-30" x="846.037109"/>
     </g>
    </g>
    <g id="LineCollection_6">
     <path d="M 76.6 268.648062 
L 76.6 258.648062 
" style="fill: none; stroke: #9ac9db; stroke-width: 1.5"/>
    </g>
    <g id="line2d_22">
     <path d="M 66.6 263.648062 
L 86.6 263.648062 
" style="fill: none; stroke: #9ac9db; stroke-width: 1.5; stroke-linecap: square"/>
    </g>
    <g id="line2d_23">
     <g>
      <use xlink:href="#mf7a726ca99" x="76.6" y="263.648062" style="fill: #9ac9db; stroke: #9ac9db"/>
     </g>
    </g>
    <g id="text_19">
     <!-- Reduction ratio=25 -->
     <g transform="translate(94.6 267.148062) scale(0.1 -0.1)">
      <use xlink:href="#DejaVuSans-52"/>
      <use xlink:href="#DejaVuSans-65" x="64.982422"/>
      <use xlink:href="#DejaVuSans-64" x="126.505859"/>
      <use xlink:href="#DejaVuSans-75" x="189.982422"/>
      <use xlink:href="#DejaVuSans-63" x="253.361328"/>
      <use xlink:href="#DejaVuSans-74" x="308.341797"/>
      <use xlink:href="#DejaVuSans-69" x="347.550781"/>
      <use xlink:href="#DejaVuSans-6f" x="375.333984"/>
      <use xlink:href="#DejaVuSans-6e" x="436.515625"/>
      <use xlink:href="#DejaVuSans-20" x="499.894531"/>
      <use xlink:href="#DejaVuSans-72" x="531.681641"/>
      <use xlink:href="#DejaVuSans-61" x="572.794922"/>
      <use xlink:href="#DejaVuSans-74" x="634.074219"/>
      <use xlink:href="#DejaVuSans-69" x="673.283203"/>
      <use xlink:href="#DejaVuSans-6f" x="701.066406"/>
      <use xlink:href="#DejaVuSans-3d" x="762.248047"/>
      <use xlink:href="#DejaVuSans-32" x="846.037109"/>
      <use xlink:href="#DejaVuSans-35" x="909.660156"/>
     </g>
    </g>
    <g id="LineCollection_7">
     <path d="M 76.6 283.326187 
L 76.6 273.326187 
" style="fill: none; stroke: #f8ac8c; stroke-width: 1.5"/>
    </g>
    <g id="line2d_24">
     <path d="M 66.6 278.326187 
L 86.6 278.326187 
" style="fill: none; stroke: #f8ac8c; stroke-width: 1.5; stroke-linecap: square"/>
    </g>
    <g id="line2d_25">
     <g>
      <use xlink:href="#mf4e2452a04" x="76.6" y="278.326187" style="fill: #f8ac8c; stroke: #f8ac8c"/>
     </g>
    </g>
    <g id="text_20">
     <!-- Reduction ratio=50 -->
     <g transform="translate(94.6 281.826187) scale(0.1 -0.1)">
      <use xlink:href="#DejaVuSans-52"/>
      <use xlink:href="#DejaVuSans-65" x="64.982422"/>
      <use xlink:href="#DejaVuSans-64" x="126.505859"/>
      <use xlink:href="#DejaVuSans-75" x="189.982422"/>
      <use xlink:href="#DejaVuSans-63" x="253.361328"/>
      <use xlink:href="#DejaVuSans-74" x="308.341797"/>
      <use xlink:href="#DejaVuSans-69" x="347.550781"/>
      <use xlink:href="#DejaVuSans-6f" x="375.333984"/>
      <use xlink:href="#DejaVuSans-6e" x="436.515625"/>
      <use xlink:href="#DejaVuSans-20" x="499.894531"/>
      <use xlink:href="#DejaVuSans-72" x="531.681641"/>
      <use xlink:href="#DejaVuSans-61" x="572.794922"/>
      <use xlink:href="#DejaVuSans-74" x="634.074219"/>
      <use xlink:href="#DejaVuSans-69" x="673.283203"/>
      <use xlink:href="#DejaVuSans-6f" x="701.066406"/>
      <use xlink:href="#DejaVuSans-3d" x="762.248047"/>
      <use xlink:href="#DejaVuSans-35" x="846.037109"/>
      <use xlink:href="#DejaVuSans-30" x="909.660156"/>
     </g>
    </g>
    <g id="LineCollection_8">
     <path d="M 76.6 298.004312 
L 76.6 288.004312 
" style="fill: none; stroke: #c82423; stroke-width: 1.5"/>
    </g>
    <g id="line2d_26">
     <path d="M 66.6 293.004312 
L 86.6 293.004312 
" style="fill: none; stroke: #c82423; stroke-width: 1.5; stroke-linecap: square"/>
    </g>
    <g id="line2d_27">
     <g>
      <use xlink:href="#mc3e7dd6ca9" x="76.6" y="293.004312" style="fill: #c82423; stroke: #c82423"/>
     </g>
    </g>
    <g id="text_21">
     <!-- Reduction ratio=75 -->
     <g transform="translate(94.6 296.504312) scale(0.1 -0.1)">
      <defs>
       <path id="DejaVuSans-37" d="M 525 4666 
L 3525 4666 
L 3525 4397 
L 1831 0 
L 1172 0 
L 2766 4134 
L 525 4134 
L 525 4666 
z
" transform="scale(0.015625)"/>
      </defs>
      <use xlink:href="#DejaVuSans-52"/>
      <use xlink:href="#DejaVuSans-65" x="64.982422"/>
      <use xlink:href="#DejaVuSans-64" x="126.505859"/>
      <use xlink:href="#DejaVuSans-75" x="189.982422"/>
      <use xlink:href="#DejaVuSans-63" x="253.361328"/>
      <use xlink:href="#DejaVuSans-74" x="308.341797"/>
      <use xlink:href="#DejaVuSans-69" x="347.550781"/>
      <use xlink:href="#DejaVuSans-6f" x="375.333984"/>
      <use xlink:href="#DejaVuSans-6e" x="436.515625"/>
      <use xlink:href="#DejaVuSans-20" x="499.894531"/>
      <use xlink:href="#DejaVuSans-72" x="531.681641"/>
      <use xlink:href="#DejaVuSans-61" x="572.794922"/>
      <use xlink:href="#DejaVuSans-74" x="634.074219"/>
      <use xlink:href="#DejaVuSans-69" x="673.283203"/>
      <use xlink:href="#DejaVuSans-6f" x="701.066406"/>
      <use xlink:href="#DejaVuSans-3d" x="762.248047"/>
      <use xlink:href="#DejaVuSans-37" x="846.037109"/>
      <use xlink:href="#DejaVuSans-35" x="909.660156"/>
     </g>
    </g>
   </g>
  </g>
 </g>
 <defs>
  <clipPath id="pe524798156">
   <rect x="57.6" y="41.472" width="357.12" height="266.112"/>
  </clipPath>
 </defs>
</svg>
